# xmcd
#
# Track frame offsets: 
#        150
#        24012
#        39237
#        67244
#        92025
#        114948
#        135209
#        157132
#        177404
#        200155
#        222080
#        245193
#
# Disc length: 3465 seconds
#
# Revision: 0
# Processed by: cddbd v1.5.2PL0 Copyright (c) Steve Scherf et al.
# Submitted via: ExactAudioCopy v0.95a5
#
DISCID=a60d870c
DTITLE=Various Artist - Beginners Guide To African Blues CD1
DYEAR=2010
DGENRE=Blues
TTITLE0=Idrissa Souamaoro feat. Ali Farka Touré - Bérébéré (Mali)
TTITLE1=Cherif Mbaw - Kora (Senegal)
TTITLE2=Habib Koité - Fatma (Mali)
TTITLE3=Hokia Traoré - Souba (Mali)
TTITLE4=Djelimadi Tounkara - Mandé Djeliou (Mali)
TTITLE5=Boubacar Traoré - Mouso Teke Soma Ye (Mali)
TTITLE6=Tama ft. Manani Keita - Baro (Mali-UK)
TTITLE7=Daby Touré and Skip McDonald - Sinners (Senegal-US)
TTITLE8=El Hadj N'diaye - Boor Yi (Senegal)
TTITLE9=Mah Damba Djelimousso - Barani Saba (Debe) (Mali)
TTITLE10=Ballaké Sissoko ft. Toumani Diabaté - Kanou (Mali)
TTITLE11=Boubacar Traoré w. Ali Farka Touré - Diarabi (Mali)
EXTD=
EXTT0=
EXTT1=
EXTT2=
EXTT3=
EXTT4=
EXTT5=
EXTT6=
EXTT7=
EXTT8=
EXTT9=
EXTT10=
EXTT11=
PLAYORDER=
